<svg width="24" height="24" viewBox="0 0 24 24" fill="none" xmlns="http://www.w3.org/2000/svg">
<path fill-rule="evenodd" clip-rule="evenodd" d="M4.68373 6.32728C4.95331 6.0577 5.31895 5.90625 5.7002 5.90625H12.8877C13.0783 5.90625 13.2611 5.98198 13.3959 6.11677L16.9897 9.71052C17.1245 9.84531 17.2002 10.0281 17.2002 10.2188V20.2812C17.2002 20.6625 17.0487 21.0281 16.7792 21.2977C16.5096 21.5673 16.1439 21.7188 15.7627 21.7188H5.7002C5.31895 21.7188 4.95331 21.5673 4.68373 21.2977C4.41415 21.0281 4.2627 20.6625 4.2627 20.2812V7.34375C4.2627 6.9625 4.41415 6.59687 4.68373 6.32728ZM12.59 7.34375L5.7002 7.34375L5.7002 20.2812H15.7627V10.5165L12.59 7.34375Z" fill="#5A3CFF"/>
<path fill-rule="evenodd" clip-rule="evenodd" d="M7.55873 3.45228C7.82831 3.1827 8.19395 3.03125 8.5752 3.03125H15.7627C15.9533 3.03125 16.1361 3.10698 16.2709 3.24177L19.8647 6.83552C19.9995 6.97031 20.0752 7.15313 20.0752 7.34375V17.4062C20.0752 17.7875 19.9237 18.1531 19.6542 18.4227C19.3846 18.6923 19.0189 18.8438 18.6377 18.8438H16.4814C16.0845 18.8438 15.7627 18.522 15.7627 18.125C15.7627 17.728 16.0845 17.4062 16.4814 17.4062H18.6377V7.64147L15.465 4.46875L8.5752 4.46875L8.5752 6.625C8.5752 7.02195 8.2534 7.34375 7.85645 7.34375C7.45949 7.34375 7.1377 7.02195 7.1377 6.625V4.46875C7.1377 4.0875 7.28915 3.72187 7.55873 3.45228Z" fill="#5A3CFF"/>
<path fill-rule="evenodd" clip-rule="evenodd" d="M7.85645 14.5312C7.85645 14.1343 8.17824 13.8125 8.5752 13.8125H12.8877C13.2846 13.8125 13.6064 14.1343 13.6064 14.5312C13.6064 14.9282 13.2846 15.25 12.8877 15.25H8.5752C8.17824 15.25 7.85645 14.9282 7.85645 14.5312Z" fill="#5A3CFF"/>
<path fill-rule="evenodd" clip-rule="evenodd" d="M7.85645 17.4062C7.85645 17.0093 8.17824 16.6875 8.5752 16.6875H12.8877C13.2846 16.6875 13.6064 17.0093 13.6064 17.4062C13.6064 17.8032 13.2846 18.125 12.8877 18.125H8.5752C8.17824 18.125 7.85645 17.8032 7.85645 17.4062Z" fill="#5A3CFF"/>
</svg>
