<svg width="22" height="22" viewBox="0 0 22 22" fill="none" xmlns="http://www.w3.org/2000/svg">
<circle cx="10.9316" cy="11.0547" r="10.4492" fill="#6257DE"/>
<path d="M7.546 14.082C7.86333 13.83 8.008 13.7133 7.98 13.732C8.89467 12.976 9.61333 12.3553 10.136 11.87C10.668 11.3847 11.116 10.876 11.48 10.344C11.844 9.812 12.026 9.294 12.026 8.79C12.026 8.40733 11.9373 8.10867 11.76 7.894C11.5827 7.67933 11.3167 7.572 10.962 7.572C10.6073 7.572 10.3273 7.70733 10.122 7.978C9.926 8.23933 9.828 8.61267 9.828 9.098H7.518C7.53667 8.30467 7.70467 7.642 8.022 7.11C8.34867 6.578 8.77333 6.186 9.296 5.934C9.828 5.682 10.416 5.556 11.06 5.556C12.1707 5.556 13.006 5.84067 13.566 6.41C14.1353 6.97933 14.42 7.72133 14.42 8.636C14.42 9.63467 14.0793 10.5633 13.398 11.422C12.7167 12.2713 11.8487 13.102 10.794 13.914H14.574V15.86H7.546V14.082Z" fill="white"/>
</svg>
