<svg width="22" height="22" viewBox="0 0 22 22" fill="none" xmlns="http://www.w3.org/2000/svg">
<circle cx="10.9316" cy="11.293" r="10.4492" fill="#6257DE"/>
<path d="M7.714 8.664C7.75133 7.66533 8.078 6.89533 8.694 6.354C9.31 5.81267 10.1453 5.542 11.2 5.542C11.9 5.542 12.4973 5.66333 12.992 5.906C13.496 6.14867 13.874 6.48 14.126 6.9C14.3873 7.32 14.518 7.79133 14.518 8.314C14.518 8.93 14.364 9.434 14.056 9.826C13.748 10.2087 13.3887 10.47 12.978 10.61V10.666C13.51 10.8433 13.93 11.1373 14.238 11.548C14.546 11.9587 14.7 12.486 14.7 13.13C14.7 13.7087 14.5647 14.222 14.294 14.67C14.0327 15.1087 13.6453 15.454 13.132 15.706C12.628 15.958 12.026 16.084 11.326 16.084C10.206 16.084 9.31 15.8087 8.638 15.258C7.97533 14.7073 7.62533 13.8767 7.588 12.766H9.912C9.92133 13.1767 10.038 13.5033 10.262 13.746C10.486 13.9793 10.8127 14.096 11.242 14.096C11.606 14.096 11.886 13.9933 12.082 13.788C12.2873 13.5733 12.39 13.2933 12.39 12.948C12.39 12.5 12.2453 12.178 11.956 11.982C11.676 11.7767 11.2233 11.674 10.598 11.674H10.15V9.728H10.598C11.074 9.728 11.4567 9.64867 11.746 9.49C12.0447 9.322 12.194 9.028 12.194 8.608C12.194 8.272 12.1007 8.01067 11.914 7.824C11.7273 7.63733 11.4707 7.544 11.144 7.544C10.7893 7.544 10.5233 7.65133 10.346 7.866C10.178 8.08067 10.08 8.34667 10.052 8.664H7.714Z" fill="white"/>
</svg>
