<svg width="26" height="30" viewBox="0 0 26 30" fill="none" xmlns="http://www.w3.org/2000/svg">
<path d="M13.1328 0.713867C15.1433 0.713867 16.7858 2.29718 16.878 4.28298C20.3814 5.7646 22.7409 9.2209 22.7409 13.1336V18.5328C24.3115 18.6531 25.5528 19.9677 25.5528 21.5703C25.5528 23.2517 24.1856 24.6166 22.5019 24.6166H3.76377C2.0791 24.6166 0.712891 23.2536 0.712891 21.5703C0.712891 19.9683 1.95231 18.6532 3.52483 18.5328V13.1336C3.52483 9.22023 5.88398 5.76427 9.38764 4.28298C9.47984 2.2966 11.1236 0.713867 13.1329 0.713867H13.1328ZM10.9126 6.21446C7.9307 7.16974 5.86816 9.95154 5.86816 13.1336V18.7574C5.86816 19.9219 4.92335 20.867 3.76009 20.867C3.37203 20.867 3.05621 21.1832 3.05621 21.5702C3.05621 21.958 3.37202 22.2731 3.76368 22.2731H22.5018C22.8922 22.2731 23.2093 21.9567 23.2093 21.5702C23.2093 21.1838 22.8922 20.867 22.5054 20.867C21.3402 20.867 20.3973 19.9248 20.3973 18.7574V13.1336C20.3973 9.95255 18.3345 7.16974 15.3529 6.21446L14.5388 5.95357V4.45922C14.5388 3.68636 13.9088 3.05735 13.1327 3.05735C12.3576 3.05735 11.7266 3.68669 11.7266 4.45922V5.95357L10.9126 6.21446ZM8.68035 24.617H11.0238C11.0238 25.7818 11.9679 26.726 13.1328 26.726C14.2976 26.726 15.2418 25.7818 15.2418 24.617H17.5852C17.5852 27.0762 15.5919 29.0694 13.1328 29.0694C10.6736 29.0694 8.68035 27.0762 8.68035 24.617Z" fill="#D2D2D2"/>
</svg>
