<svg width="77" height="72" viewBox="0 0 77 72" fill="none" xmlns="http://www.w3.org/2000/svg">
<path d="M76.4668 22.8231V21.9168H76.1648L61.9658 0.844727H15.4423L1.24391 21.8411H0.941406V71.0082H76.4664L76.4668 22.8231ZM72.3882 21.8414H46.106L43.9914 3.94118H60.38L72.3882 21.8414ZM34.0212 25.0137H43.0841V41.1767H34.0212V25.0137ZM34.1719 21.8414L36.2865 4.16816H40.7423L42.8569 21.8414H34.1719ZM17.1039 4.01832H33.1912L31.0766 21.9186H30.9254L5.01999 21.918L17.1039 4.01832ZM73.3697 67.9125H4.03841V25.0147H30.8502V44.2739H46.2582V25.0147H73.3726L73.3697 67.9125Z" fill="#00064B" fill-opacity="0.25"/>
<path d="M10.6085 50.9934H24.0518C24.8828 50.9934 25.6378 50.3136 25.6378 49.4073C25.6378 48.5763 24.9581 47.8213 24.0518 47.8213H10.6085C9.77749 47.8213 9.02246 48.501 9.02246 49.4073C9.09838 50.3137 9.77814 50.9934 10.6085 50.9934Z" fill="#00064B" fill-opacity="0.25"/>
<path d="M10.6085 57.2619H33.1908C34.0218 57.2619 34.7768 56.5822 34.7768 55.6759C34.7768 54.8449 34.0971 54.0898 33.1908 54.0898L10.6085 54.0904C9.77749 54.0904 9.02246 54.7702 9.02246 55.6765C9.09838 56.5822 9.77814 57.2621 10.6085 57.2621V57.2619Z" fill="#00064B" fill-opacity="0.25"/>
<path d="M39.0062 60.4346H10.6085C9.77749 60.4346 9.02246 61.1143 9.02246 62.0206C9.02246 62.8516 9.70221 63.6067 10.6085 63.6067H39.0062C39.8372 63.6067 40.5923 62.9269 40.5923 62.0206C40.5923 61.1143 39.9125 60.4346 39.0062 60.4346Z" fill="#00064B" fill-opacity="0.25"/>
<path d="M68.1593 28.79H57.5098V42.3847H68.1593V28.79ZM65.0624 39.2124H60.6066V31.8863H64.987V39.2124H65.0624Z" fill="#00064B" fill-opacity="0.25"/>
</svg>
