<svg width="27" height="28" viewBox="0 0 27 28" fill="none" xmlns="http://www.w3.org/2000/svg">
<path d="M24.2798 23.3033L20.485 19.5931V19.5931L20.396 19.4578C20.2306 19.2932 20.0045 19.2004 19.7685 19.2004C19.5325 19.2004 19.3063 19.2932 19.1409 19.4578V19.4578C15.9159 22.4166 10.9464 22.5774 7.52826 19.8337C4.11012 17.0899 3.30398 12.293 5.64448 8.62415C7.98498 4.95534 12.7458 3.55312 16.7697 5.34744C20.7935 7.14176 22.8317 11.5758 21.5325 15.709C21.439 16.0076 21.5154 16.3323 21.7331 16.5608C21.9508 16.7893 22.2767 16.8869 22.588 16.8168C22.8992 16.7468 23.1486 16.5197 23.2422 16.2211V16.2211C24.7952 11.3162 22.4496 6.0379 17.7227 3.80065C12.9958 1.56339 7.30617 3.03863 4.33444 7.27202C1.36271 11.5054 2.00072 17.2265 5.83575 20.7343C9.67077 24.2421 15.5519 24.4839 19.6746 21.3033L23.0347 24.5884C23.3817 24.9262 23.9427 24.9262 24.2897 24.5884C24.6364 24.2458 24.6364 23.6942 24.2897 23.3516V23.3516L24.2798 23.3033Z" fill="#8C98BE"/>
</svg>
