<svg width="38" height="36" viewBox="0 0 38 36" fill="none" xmlns="http://www.w3.org/2000/svg">
<path d="M14.8335 31.1117V26.5865C14.8335 25.4398 15.796 24.5082 16.9883 24.501H21.3659C22.5635 24.501 23.5343 25.4347 23.5343 26.5865V26.5865V31.0986C23.5343 32.0932 24.3686 32.9015 25.4027 32.9087H28.3893C29.7842 32.9122 31.1232 32.3817 32.1108 31.4342C33.0984 30.4868 33.6535 29.2004 33.6535 27.8588V15.0046C33.6534 13.9209 33.154 12.8929 32.2897 12.1977L22.1433 4.39333C20.3697 3.02826 17.8365 3.07236 16.1154 4.49826L6.18722 12.1977C5.28208 12.8725 4.74109 13.9035 4.71436 15.0046V27.8457C4.71436 30.6419 7.07119 32.9087 9.97849 32.9087H12.897C13.3948 32.9122 13.8736 32.7244 14.2269 32.387C14.5802 32.0496 14.779 31.5906 14.779 31.1117H14.8335Z" fill="url(#paint0_linear_1098_923)"/>
<defs>
<linearGradient id="paint0_linear_1098_923" x1="3.14895" y1="35.1423" x2="40.5757" y2="15.0766" gradientUnits="userSpaceOnUse">
<stop stop-color="#6571FF"/>
<stop offset="1" stop-color="#582EFF"/>
</linearGradient>
</defs>
</svg>
