<svg width="29" height="30" viewBox="0 0 29 30" fill="none" xmlns="http://www.w3.org/2000/svg">
<path d="M12.2739 20.1025L12.2678 20.1026C10.5624 20.1129 9.11911 21.4554 9.11915 23.1881V26.7133H9.06457L9.06459 27.7133C9.0646 27.9127 8.9822 28.1123 8.82197 28.2653C8.6604 28.4196 8.4334 28.512 8.18962 28.5103V28.5102H8.1826H5.26414C2.87204 28.5102 1 26.6548 1 24.4473V11.6193C1.02242 10.8382 1.4077 10.0951 2.07056 9.60096L2.07818 9.59528L2.08569 9.58945L12.0139 1.89005L12.0266 1.88016L12.0391 1.86988C13.3997 0.742569 15.4148 0.706606 16.819 1.78735L16.8193 1.78754L26.9564 9.58473C27.5863 10.0952 27.9391 10.8367 27.9391 11.6062C27.9391 11.6062 27.9391 11.6062 27.9391 11.6062V24.4604C27.9391 25.5234 27.4997 26.5511 26.7042 27.3142C25.9074 28.0786 24.819 28.5131 23.6775 28.5102H23.675H20.6924C20.1728 28.5051 19.82 28.1084 19.82 27.7002V23.1881C19.82 21.4476 18.3644 20.1025 16.6516 20.1025L12.2739 20.1025Z" fill="white" stroke="#898E9C" stroke-width="2"/>
</svg>
