<svg width="33" height="33" viewBox="0 0 33 33" fill="none" xmlns="http://www.w3.org/2000/svg">
<path fill-rule="evenodd" clip-rule="evenodd" d="M5.9367 18.5883L5.76414 18.5556C5.82234 18.5693 5.87858 18.5881 5.93237 18.6113L5.9367 18.5883ZM25.541 10.0555C25.5498 10.0394 25.559 10.0235 25.5687 10.0079L25.5742 9.99902H25.506C25.5174 10.0178 25.5291 10.0366 25.541 10.0555ZM13.1333 19.4801C14.0159 20.3627 15.2129 20.8583 16.461 20.8583C17.7086 20.8569 18.9049 20.3609 19.7873 19.4787C20.6694 18.5963 21.1657 17.4001 21.1671 16.1524C21.1671 14.9044 20.6712 13.7074 19.7886 12.8248C18.906 11.9421 17.709 11.4463 16.461 11.4463C15.2129 11.4463 14.0159 11.9422 13.1333 12.8248C12.2507 13.7073 11.7549 14.9044 11.7549 16.1524C11.7549 17.4005 12.2508 18.5974 13.1333 19.4801ZM28.1578 11.9306L31.6897 12.7612C31.9092 12.8127 32.1049 12.937 32.2449 13.1139C32.3849 13.2905 32.4609 13.5094 32.4609 13.7348V18.2861C32.4609 18.5115 32.3846 18.7304 32.2449 18.907C32.1049 19.0837 31.9092 19.2079 31.6897 19.2594L28.2644 20.0646C28.1095 20.5327 27.9266 20.9912 27.717 21.4373L29.6279 24.5232C29.7468 24.7148 29.7973 24.9409 29.7714 25.165C29.7452 25.3889 29.6444 25.5971 29.4849 25.7566L26.2668 28.9748C26.1076 29.1342 25.8991 29.2351 25.6752 29.2609C25.4513 29.2868 25.2251 29.2364 25.0336 29.118L22.0407 27.2652C21.6001 27.4868 21.1467 27.6818 20.6827 27.8493L19.8521 31.3811C19.8005 31.6006 19.6763 31.7963 19.4994 31.9363C19.3228 32.0763 19.104 32.1523 18.8785 32.1523H14.3272C14.1018 32.1523 13.8829 32.076 13.7063 31.9363C13.5296 31.7963 13.4054 31.6006 13.3539 31.3811L12.5487 27.9558C12.0806 27.8009 11.6221 27.618 11.176 27.4084L8.09006 29.3193C7.89853 29.4383 7.67238 29.4887 7.44829 29.4628C7.22442 29.4367 7.01614 29.3358 6.85666 29.1764L3.63853 25.9582C3.47906 25.799 3.37824 25.5905 3.35212 25.3666C3.32622 25.1427 3.37663 24.9166 3.49532 24.725L5.34808 21.7321C5.12652 21.2915 4.93153 20.8381 4.76403 20.3741L1.23219 19.5437C1.01269 19.4922 0.817007 19.3678 0.677009 19.1911C0.537011 19.0142 0.460938 18.7954 0.460938 18.5699V14.0191C0.460938 13.7937 0.537239 13.5749 0.677009 13.3982C0.817007 13.2215 1.01268 13.0971 1.23219 13.0456L4.65792 12.2404C4.81304 11.7723 4.99588 11.3138 5.20531 10.8674L3.2946 7.78193C3.17591 7.59017 3.12527 7.36402 3.15116 7.14015C3.17728 6.91605 3.27809 6.70754 3.4378 6.5483L6.65506 3.32947C6.81431 3.17022 7.02282 3.0694 7.24668 3.04328C7.47057 3.01739 7.69672 3.0678 7.88828 3.18649L10.8812 5.03948C11.3217 4.81791 11.7754 4.62292 12.2392 4.45543L13.0698 0.923597C13.1214 0.704094 13.2455 0.508413 13.4224 0.368415C13.5991 0.228417 13.8179 0.152344 14.0434 0.152344H18.5942C18.8196 0.152344 19.0385 0.228646 19.2151 0.368415C19.3918 0.508413 19.5162 0.704088 19.5677 0.923597L20.3729 4.34955C20.8408 4.50444 21.2993 4.68729 21.7454 4.89694L24.8313 2.986C25.0231 2.86731 25.2492 2.81667 25.4731 2.84256C25.6972 2.86868 25.9057 2.9695 26.065 3.1292L29.2833 6.34645C29.4428 6.5057 29.5436 6.71421 29.5697 6.93807C29.5956 7.16196 29.5452 7.38812 29.4265 7.57967L27.5738 10.5726C27.7953 11.0131 27.9903 11.4666 28.1578 11.9306Z" fill="url(#paint0_linear_1215_951)"/>
<defs>
<linearGradient id="paint0_linear_1215_951" x1="-1.27004" y1="34.5744" x2="39.7503" y2="12.148" gradientUnits="userSpaceOnUse">
<stop stop-color="#6571FF"/>
<stop offset="1" stop-color="#582EFF"/>
</linearGradient>
</defs>
</svg>
