<svg width="29" height="28" viewBox="0 0 29 28" fill="none" xmlns="http://www.w3.org/2000/svg">
<mask id="path-1-inside-1_1098_925" fill="white">
<path d="M14.2789 8.36253C12.7429 8.36253 11.2697 8.97281 10.1837 10.059C9.09755 11.145 8.48727 12.6182 8.48727 14.1542C8.48727 15.6901 9.09755 17.1633 10.1837 18.2494C11.2697 19.3355 12.7429 19.9458 14.2789 19.9458C15.8148 19.9458 17.2881 19.3355 18.3741 18.2494C19.4602 17.1633 20.0705 15.6901 20.0705 14.1542C20.0687 12.6186 19.4579 11.1465 18.3723 10.0607C17.2865 8.97514 15.8145 8.36431 14.2789 8.36253ZM14.2789 18.218V18.2182C13.201 18.2182 12.1673 17.79 11.4051 17.0278C10.6429 16.2655 10.2146 15.2318 10.2146 14.154C10.2146 13.0761 10.6428 12.0423 11.4051 11.2801C12.1673 10.5179 13.201 10.0897 14.2789 10.0897C15.3567 10.0897 16.3905 10.5179 17.1527 11.2801C17.9149 12.0424 18.3432 13.0761 18.3432 14.154C18.342 15.2314 17.9134 16.2646 17.1516 17.0266C16.3895 17.7885 15.3563 18.2171 14.2789 18.2182V18.218ZM27.4307 11.2252L24.3806 10.5079C24.2359 10.1072 24.0675 9.71556 23.8762 9.33507L25.4762 6.75034C25.5787 6.58492 25.6223 6.3896 25.5999 6.19625C25.5774 6.00292 25.4903 5.82284 25.3526 5.68531L22.5731 2.90682C22.4356 2.76889 22.2555 2.68183 22.062 2.65927C21.8686 2.63691 21.6733 2.68064 21.5077 2.78314L18.8427 4.43348C18.4574 4.25242 18.0614 4.09451 17.6574 3.96074L16.962 1.00201C16.9175 0.812437 16.81 0.643447 16.6574 0.522541C16.5049 0.401833 16.3159 0.335938 16.1212 0.335938H12.191C11.9963 0.335938 11.8073 0.401636 11.6548 0.522541C11.502 0.643447 11.3947 0.812442 11.3502 1.00201L10.6329 4.05218C10.2324 4.19683 9.84056 4.36523 9.46007 4.55658L6.87534 2.95629C6.70992 2.85379 6.5146 2.81026 6.32125 2.83262C6.12792 2.85518 5.94784 2.94225 5.81031 3.07977L3.03182 5.85963C2.89389 5.99716 2.80683 6.17723 2.78427 6.37077C2.76191 6.5641 2.80564 6.75941 2.90814 6.92502L4.55828 9.58973C4.37741 9.97521 4.2195 10.3712 4.08554 10.7754L1.12701 11.4708C0.937437 11.5153 0.768447 11.6228 0.647541 11.7754C0.526833 11.9279 0.460938 12.1169 0.460938 12.3116V16.2418C0.460938 16.4365 0.526636 16.6255 0.647541 16.7782C0.768447 16.9308 0.937442 17.0383 1.12701 17.0828L4.17718 17.7999C4.32183 18.2006 4.49023 18.5922 4.68158 18.9727L3.0815 21.5574C2.97899 21.7229 2.93546 21.9182 2.95782 22.1115C2.98038 22.3049 3.06745 22.4849 3.20517 22.6225L5.98442 25.4017H5.98422C6.12195 25.5395 6.30202 25.6265 6.49536 25.6491C6.68889 25.6714 6.8842 25.6279 7.04961 25.5252L9.71468 23.8749C10.1 24.0559 10.4959 24.2138 10.9002 24.3476L11.5956 27.3058C11.6401 27.4954 11.7473 27.6644 11.8999 27.7853C12.0525 27.906 12.2414 27.9719 12.4362 27.9719H16.3667C16.5614 27.9719 16.7504 27.9062 16.903 27.7853C17.0558 27.6644 17.163 27.4954 17.2075 27.3058L17.9248 24.2556C18.3256 24.111 18.7172 23.9426 19.0977 23.7512L21.6824 25.3513C21.8478 25.4536 22.0431 25.4971 22.2365 25.4748C22.4298 25.4524 22.6099 25.3653 22.7474 25.2276L25.5267 22.4484V22.4486C25.6644 22.3108 25.7515 22.1308 25.774 21.9374C25.7964 21.7439 25.7529 21.5486 25.6502 21.3832L23.9998 18.7181C24.1809 18.3328 24.3388 17.9369 24.4726 17.5326L27.4307 16.8372C27.6203 16.7927 27.7893 16.6855 27.9102 16.5329C28.0309 16.3803 28.0968 16.1913 28.0968 15.9966V12.0661C28.0968 11.8714 28.0311 11.6824 27.9102 11.5298C27.7893 11.377 27.6203 11.2698 27.4307 11.2253L27.4307 11.2252ZM26.3695 15.3119L23.5942 15.9643V15.9645C23.4434 15.9999 23.3051 16.0751 23.1935 16.1824C23.0819 16.2894 23.0011 16.4246 22.9596 16.5738C22.7872 17.1928 22.5488 17.7914 22.2482 18.3593C22.1047 18.6304 22.1158 18.9573 22.2773 19.2179L23.8217 21.7106L22.0099 23.5225L19.5853 22.0207C19.4537 21.9392 19.3027 21.8947 19.1479 21.8915C18.9932 21.8883 18.8404 21.9269 18.7057 22.0031C18.1463 22.3195 17.5544 22.5748 16.9403 22.7643C16.6477 22.8548 16.4246 23.0936 16.3544 23.3918L15.6836 26.2445H13.1208L12.468 23.4692C12.4326 23.3184 12.3574 23.1801 12.2503 23.0683C12.1431 22.9567 12.0077 22.8759 11.8587 22.8346C11.2397 22.6622 10.6412 22.4236 10.0734 22.1232C9.80233 21.9797 9.47541 21.9908 9.21483 22.1523L6.7221 23.6967L4.91027 21.8849L6.41202 19.4603C6.49355 19.3287 6.53807 19.1777 6.54124 19.0229C6.54441 18.8682 6.50582 18.7154 6.42964 18.5807C6.11322 18.0212 5.85816 17.4294 5.6684 16.8153C5.57796 16.5227 5.33912 16.2996 5.0409 16.2294L2.18824 15.5586V12.9958L4.96354 12.3434V12.3432C5.11413 12.3078 5.25245 12.2326 5.36405 12.1255C5.47566 12.0183 5.5564 11.8831 5.59776 11.7339C5.77031 11.1149 6.00896 10.5161 6.30955 9.94802C6.45282 9.67692 6.44174 9.3502 6.28026 9.08942L4.7358 6.5971L6.54764 4.78526L8.97228 6.28717H8.97208C9.10368 6.3687 9.25486 6.41322 9.4096 6.41619C9.56435 6.41936 9.71711 6.38077 9.85187 6.30459C10.4113 5.98837 11.003 5.73311 11.617 5.54335C11.9099 5.45291 12.1329 5.21407 12.2029 4.91585L12.8737 2.06319H15.4357L16.0885 4.83849C16.1238 4.98928 16.1989 5.1276 16.306 5.23921C16.4133 5.35081 16.5484 5.43155 16.6974 5.4731C17.3164 5.64566 17.915 5.88411 18.4831 6.1845C18.7542 6.32796 19.0809 6.31688 19.3417 6.15541L21.8344 4.61095L23.6463 6.42278L22.1445 8.84742C22.063 8.97902 22.0183 9.13 22.0153 9.28474C22.0121 9.43949 22.0507 9.59225 22.1269 9.72701C22.4431 10.2864 22.6984 10.8783 22.8881 11.4923C22.9784 11.785 23.2172 12.008 23.5156 12.0783L26.3683 12.7491L26.3695 15.3119Z"/>
</mask>
<path d="M14.2789 8.36253C12.7429 8.36253 11.2697 8.97281 10.1837 10.059C9.09755 11.145 8.48727 12.6182 8.48727 14.1542C8.48727 15.6901 9.09755 17.1633 10.1837 18.2494C11.2697 19.3355 12.7429 19.9458 14.2789 19.9458C15.8148 19.9458 17.2881 19.3355 18.3741 18.2494C19.4602 17.1633 20.0705 15.6901 20.0705 14.1542C20.0687 12.6186 19.4579 11.1465 18.3723 10.0607C17.2865 8.97514 15.8145 8.36431 14.2789 8.36253ZM14.2789 18.218V18.2182C13.201 18.2182 12.1673 17.79 11.4051 17.0278C10.6429 16.2655 10.2146 15.2318 10.2146 14.154C10.2146 13.0761 10.6428 12.0423 11.4051 11.2801C12.1673 10.5179 13.201 10.0897 14.2789 10.0897C15.3567 10.0897 16.3905 10.5179 17.1527 11.2801C17.9149 12.0424 18.3432 13.0761 18.3432 14.154C18.342 15.2314 17.9134 16.2646 17.1516 17.0266C16.3895 17.7885 15.3563 18.2171 14.2789 18.2182V18.218ZM27.4307 11.2252L24.3806 10.5079C24.2359 10.1072 24.0675 9.71556 23.8762 9.33507L25.4762 6.75034C25.5787 6.58492 25.6223 6.3896 25.5999 6.19625C25.5774 6.00292 25.4903 5.82284 25.3526 5.68531L22.5731 2.90682C22.4356 2.76889 22.2555 2.68183 22.062 2.65927C21.8686 2.63691 21.6733 2.68064 21.5077 2.78314L18.8427 4.43348C18.4574 4.25242 18.0614 4.09451 17.6574 3.96074L16.962 1.00201C16.9175 0.812437 16.81 0.643447 16.6574 0.522541C16.5049 0.401833 16.3159 0.335938 16.1212 0.335938H12.191C11.9963 0.335938 11.8073 0.401636 11.6548 0.522541C11.502 0.643447 11.3947 0.812442 11.3502 1.00201L10.6329 4.05218C10.2324 4.19683 9.84056 4.36523 9.46007 4.55658L6.87534 2.95629C6.70992 2.85379 6.5146 2.81026 6.32125 2.83262C6.12792 2.85518 5.94784 2.94225 5.81031 3.07977L3.03182 5.85963C2.89389 5.99716 2.80683 6.17723 2.78427 6.37077C2.76191 6.5641 2.80564 6.75941 2.90814 6.92502L4.55828 9.58973C4.37741 9.97521 4.2195 10.3712 4.08554 10.7754L1.12701 11.4708C0.937437 11.5153 0.768447 11.6228 0.647541 11.7754C0.526833 11.9279 0.460938 12.1169 0.460938 12.3116V16.2418C0.460938 16.4365 0.526636 16.6255 0.647541 16.7782C0.768447 16.9308 0.937442 17.0383 1.12701 17.0828L4.17718 17.7999C4.32183 18.2006 4.49023 18.5922 4.68158 18.9727L3.0815 21.5574C2.97899 21.7229 2.93546 21.9182 2.95782 22.1115C2.98038 22.3049 3.06745 22.4849 3.20517 22.6225L5.98442 25.4017H5.98422C6.12195 25.5395 6.30202 25.6265 6.49536 25.6491C6.68889 25.6714 6.8842 25.6279 7.04961 25.5252L9.71468 23.8749C10.1 24.0559 10.4959 24.2138 10.9002 24.3476L11.5956 27.3058C11.6401 27.4954 11.7473 27.6644 11.8999 27.7853C12.0525 27.906 12.2414 27.9719 12.4362 27.9719H16.3667C16.5614 27.9719 16.7504 27.9062 16.903 27.7853C17.0558 27.6644 17.163 27.4954 17.2075 27.3058L17.9248 24.2556C18.3256 24.111 18.7172 23.9426 19.0977 23.7512L21.6824 25.3513C21.8478 25.4536 22.0431 25.4971 22.2365 25.4748C22.4298 25.4524 22.6099 25.3653 22.7474 25.2276L25.5267 22.4484V22.4486C25.6644 22.3108 25.7515 22.1308 25.774 21.9374C25.7964 21.7439 25.7529 21.5486 25.6502 21.3832L23.9998 18.7181C24.1809 18.3328 24.3388 17.9369 24.4726 17.5326L27.4307 16.8372C27.6203 16.7927 27.7893 16.6855 27.9102 16.5329C28.0309 16.3803 28.0968 16.1913 28.0968 15.9966V12.0661C28.0968 11.8714 28.0311 11.6824 27.9102 11.5298C27.7893 11.377 27.6203 11.2698 27.4307 11.2253L27.4307 11.2252ZM26.3695 15.3119L23.5942 15.9643V15.9645C23.4434 15.9999 23.3051 16.0751 23.1935 16.1824C23.0819 16.2894 23.0011 16.4246 22.9596 16.5738C22.7872 17.1928 22.5488 17.7914 22.2482 18.3593C22.1047 18.6304 22.1158 18.9573 22.2773 19.2179L23.8217 21.7106L22.0099 23.5225L19.5853 22.0207C19.4537 21.9392 19.3027 21.8947 19.1479 21.8915C18.9932 21.8883 18.8404 21.9269 18.7057 22.0031C18.1463 22.3195 17.5544 22.5748 16.9403 22.7643C16.6477 22.8548 16.4246 23.0936 16.3544 23.3918L15.6836 26.2445H13.1208L12.468 23.4692C12.4326 23.3184 12.3574 23.1801 12.2503 23.0683C12.1431 22.9567 12.0077 22.8759 11.8587 22.8346C11.2397 22.6622 10.6412 22.4236 10.0734 22.1232C9.80233 21.9797 9.47541 21.9908 9.21483 22.1523L6.7221 23.6967L4.91027 21.8849L6.41202 19.4603C6.49355 19.3287 6.53807 19.1777 6.54124 19.0229C6.54441 18.8682 6.50582 18.7154 6.42964 18.5807C6.11322 18.0212 5.85816 17.4294 5.6684 16.8153C5.57796 16.5227 5.33912 16.2996 5.0409 16.2294L2.18824 15.5586V12.9958L4.96354 12.3434V12.3432C5.11413 12.3078 5.25245 12.2326 5.36405 12.1255C5.47566 12.0183 5.5564 11.8831 5.59776 11.7339C5.77031 11.1149 6.00896 10.5161 6.30955 9.94802C6.45282 9.67692 6.44174 9.3502 6.28026 9.08942L4.7358 6.5971L6.54764 4.78526L8.97228 6.28717H8.97208C9.10368 6.3687 9.25486 6.41322 9.4096 6.41619C9.56435 6.41936 9.71711 6.38077 9.85187 6.30459C10.4113 5.98837 11.003 5.73311 11.617 5.54335C11.9099 5.45291 12.1329 5.21407 12.2029 4.91585L12.8737 2.06319H15.4357L16.0885 4.83849C16.1238 4.98928 16.1989 5.1276 16.306 5.23921C16.4133 5.35081 16.5484 5.43155 16.6974 5.4731C17.3164 5.64566 17.915 5.88411 18.4831 6.1845C18.7542 6.32796 19.0809 6.31688 19.3417 6.15541L21.8344 4.61095L23.6463 6.42278L22.1445 8.84742C22.063 8.97902 22.0183 9.13 22.0153 9.28474C22.0121 9.43949 22.0507 9.59225 22.1269 9.72701C22.4431 10.2864 22.6984 10.8783 22.8881 11.4923C22.9784 11.785 23.2172 12.008 23.5156 12.0783L26.3683 12.7491L26.3695 15.3119Z" fill="#898E9C" stroke="#898E9C" stroke-width="6" mask="url(#path-1-inside-1_1098_925)"/>
</svg>
