<svg width="35" height="32" viewBox="0 0 35 32" fill="none" xmlns="http://www.w3.org/2000/svg">
<g clip-path="url(#clip0_1215_1102)">
<path d="M17.8271 16C19.5083 16 21.1517 15.5308 22.5495 14.6518C23.9473 13.7727 25.0368 12.5233 25.6801 11.0615C26.3235 9.59966 26.4918 7.99113 26.1638 6.43928C25.8358 4.88743 25.0263 3.46197 23.8376 2.34315C22.6488 1.22433 21.1343 0.462403 19.4854 0.153721C17.8366 -0.15496 16.1275 0.00346629 14.5743 0.608967C13.0212 1.21447 11.6936 2.23985 10.7597 3.55544C9.82566 4.87104 9.32715 6.41775 9.32715 8C9.3294 10.1211 10.2257 12.1547 11.8192 13.6545C13.4128 15.1544 15.5735 15.9979 17.8271 16ZM17.8271 2.66667C18.9479 2.66667 20.0435 2.97947 20.9754 3.5655C21.9073 4.15153 22.6336 4.98449 23.0625 5.95903C23.4914 6.93357 23.6036 8.00592 23.3849 9.04049C23.1663 10.0751 22.6266 11.0254 21.8341 11.7712C21.0416 12.5171 20.0319 13.0251 18.9327 13.2309C17.8334 13.4366 16.6941 13.331 15.6586 12.9274C14.6232 12.5237 13.7381 11.8401 13.1155 10.963C12.4928 10.086 12.1605 9.05484 12.1605 8C12.1605 6.58552 12.7575 5.22896 13.8202 4.22877C14.8829 3.22857 16.3243 2.66667 17.8271 2.66667Z" fill="#898E9C"/>
<path d="M17.8271 18.668C14.4468 18.6715 11.206 19.9369 8.81568 22.1866C6.4254 24.4363 5.0809 27.4865 5.07715 30.668C5.07715 31.0216 5.2264 31.3607 5.49208 31.6108C5.75776 31.8608 6.11809 32.0013 6.49382 32.0013C6.86954 32.0013 7.22987 31.8608 7.49555 31.6108C7.76123 31.3607 7.91048 31.0216 7.91048 30.668C7.91048 28.1926 8.95527 25.8186 10.815 24.0683C12.6747 22.318 15.1971 21.3346 17.8271 21.3346C20.4572 21.3346 22.9796 22.318 24.8393 24.0683C26.699 25.8186 27.7438 28.1926 27.7438 30.668C27.7438 31.0216 27.8931 31.3607 28.1587 31.6108C28.4244 31.8608 28.7848 32.0013 29.1605 32.0013C29.5362 32.0013 29.8965 31.8608 30.1622 31.6108C30.4279 31.3607 30.5771 31.0216 30.5771 30.668C30.5734 27.4865 29.2289 24.4363 26.8386 22.1866C24.4483 19.9369 21.2075 18.6715 17.8271 18.668Z" fill="#898E9C"/>
</g>
<defs>
<clipPath id="clip0_1215_1102">
<rect x="0.827148" width="34" height="32" rx="16" fill="white"/>
</clipPath>
</defs>
</svg>
