<svg width="47" height="47" viewBox="0 0 47 47" fill="none" xmlns="http://www.w3.org/2000/svg">
<circle cx="23.3934" cy="23.6063" r="21.6121" fill="#DFDFDF" stroke="#DFDFDF" stroke-width="2"/>
<path d="M28.7306 14.2812H12.5127V28.3367H28.7306V14.2812Z" fill="white" stroke="#B8B8B8" stroke-width="2" stroke-linecap="round" stroke-linejoin="round"/>
<path d="M28.7305 19.6875H33.0552L36.2988 22.9311V28.337H28.7305V19.6875Z" fill="white" stroke="#B8B8B8" stroke-width="2" stroke-linecap="round" stroke-linejoin="round"/>
<path d="M17.3778 33.7438C18.8706 33.7438 20.0808 32.5337 20.0808 31.0409C20.0808 29.5481 18.8706 28.3379 17.3778 28.3379C15.885 28.3379 14.6748 29.5481 14.6748 31.0409C14.6748 32.5337 15.885 33.7438 17.3778 33.7438Z" fill="white" stroke="#B8B8B8" stroke-width="2" stroke-linecap="round" stroke-linejoin="round"/>
<path d="M31.4334 33.7438C32.9263 33.7438 34.1364 32.5337 34.1364 31.0409C34.1364 29.5481 32.9263 28.3379 31.4334 28.3379C29.9406 28.3379 28.7305 29.5481 28.7305 31.0409C28.7305 32.5337 29.9406 33.7438 31.4334 33.7438Z" fill="white" stroke="#B8B8B8" stroke-width="2" stroke-linecap="round" stroke-linejoin="round"/>
</svg>
