<svg width="46" height="47" viewBox="0 0 46 47" fill="none" xmlns="http://www.w3.org/2000/svg">
<circle cx="22.9442" cy="23.6063" r="21.6121" fill="#5C45FF" stroke="#5C45FF" stroke-width="2"/>
<path fill-rule="evenodd" clip-rule="evenodd" d="M29.4931 15.1451C29.4776 15.1643 29.4613 15.1831 29.444 15.2013L25.86 18.9888C25.6123 19.2507 25.2327 19.3404 24.8939 19.2172L15.486 15.7961L13.96 17.3221L21.1823 22.137C21.4078 22.2873 21.554 22.5308 21.5807 22.8005C21.6074 23.0701 21.5118 23.3375 21.3202 23.5292L18.6067 26.2426C18.4371 26.4122 18.207 26.5075 17.9672 26.5075H15.6283L14.2105 27.9254L17.5553 29.0536C17.8224 29.1437 18.0323 29.3533 18.1228 29.6203L19.2611 32.9792L20.6806 31.5598V29.221C20.6806 28.9661 20.7881 28.7231 20.9767 28.5517L23.7127 26.0644C23.9064 25.8883 24.1668 25.8048 24.4267 25.8353C24.6866 25.8659 24.9205 26.0075 25.0681 26.2236L29.8572 33.237L31.392 31.7022L27.9709 22.2942C27.8474 21.9545 27.938 21.5739 28.2013 21.3262L31.9597 17.7916C32.2702 17.4568 32.4436 17.0165 32.4436 16.5582C32.4436 16.0772 32.2525 15.6159 31.9124 15.2757C31.5723 14.9356 31.111 14.7445 30.6299 14.7445C30.2145 14.7445 29.8137 14.8871 29.4931 15.1451ZM33.3242 18.9798C33.9204 18.3166 34.2526 17.4545 34.2526 16.5582C34.2526 15.5974 33.8709 14.676 33.1915 13.9966C32.5122 13.3172 31.5907 12.9355 30.6299 12.9355C29.6692 12.9355 28.7477 13.3172 28.0683 13.9966C28.0179 14.0471 27.9745 14.1021 27.9384 14.1605L24.9541 17.3142L15.5628 13.8992C15.2325 13.7791 14.8626 13.8612 14.6141 14.1097L11.9007 16.8231C11.7091 17.0147 11.6135 17.2821 11.6402 17.5518C11.6669 17.8215 11.8131 18.0649 12.0385 18.2153L19.2609 23.0302L17.5925 24.6986H15.2537C15.0138 24.6986 14.7838 24.7939 14.6141 24.9635L11.9007 27.6769C11.6794 27.8982 11.5882 28.2181 11.6596 28.5227C11.7309 28.8274 11.9547 29.0735 12.2511 29.1735L16.5532 30.6247L18.015 34.9382C18.1154 35.2343 18.3616 35.4576 18.666 35.5287C18.9705 35.5998 19.2901 35.5085 19.5112 35.2875L22.2247 32.574C22.3943 32.4044 22.4896 32.1743 22.4896 31.9344V29.6211L24.1604 28.1022L28.9785 35.158C29.1303 35.3803 29.3733 35.5234 29.6413 35.5485C29.9094 35.5735 30.1747 35.4778 30.365 35.2875L33.0785 32.574C33.327 32.3255 33.409 31.9556 33.2889 31.6253L29.8746 22.2359L33.1158 19.1876C33.142 19.1666 33.1673 19.144 33.1915 19.1198C33.192 19.1193 33.1925 19.1188 33.193 19.1183L33.2594 19.052C33.2825 19.0288 33.3041 19.0047 33.3242 18.9798Z" fill="white"/>
</svg>
