<svg width="46" height="47" viewBox="0 0 46 47" fill="none" xmlns="http://www.w3.org/2000/svg">
<circle cx="22.618" cy="23.6063" r="21.6121" fill="#DFDFDF" stroke="#DFDFDF" stroke-width="2"/>
<path d="M31.4791 22.0438C31.4791 28.935 22.619 34.8418 22.619 34.8418C22.619 34.8418 13.7588 28.935 13.7588 22.0438C13.7588 19.6939 14.6923 17.4403 16.3539 15.7787C18.0155 14.1171 20.2691 13.1836 22.619 13.1836C24.9688 13.1836 27.2224 14.1171 28.884 15.7787C30.5456 17.4403 31.4791 19.6939 31.4791 22.0438Z" fill="white" stroke="#B8B8B8" stroke-width="2" stroke-linecap="round" stroke-linejoin="round"/>
<path d="M22.6184 24.9966C24.2495 24.9966 25.5718 23.6743 25.5718 22.0432C25.5718 20.4121 24.2495 19.0898 22.6184 19.0898C20.9873 19.0898 19.665 20.4121 19.665 22.0432C19.665 23.6743 20.9873 24.9966 22.6184 24.9966Z" fill="white" stroke="#B8B8B8" stroke-width="2" stroke-linecap="round" stroke-linejoin="round"/>
</svg>
