<svg width="46" height="47" viewBox="0 0 46 47" fill="none" xmlns="http://www.w3.org/2000/svg">
<circle cx="22.7195" cy="23.6063" r="21.6121" fill="#DFDFDF" stroke="#DFDFDF" stroke-width="2"/>
<path d="M12.1836 17.9346L22.5342 12.2812L33.3184 18.4562V30.2846L22.5342 36.1988L12.1836 30.2846V17.9346Z" fill="white" stroke="#F7F8F8"/>
<path fill-rule="evenodd" clip-rule="evenodd" d="M21.8322 11.4961C22.1025 11.3413 22.4086 11.2598 22.7202 11.2598C23.0318 11.2598 23.3379 11.3413 23.6082 11.4961L33.5571 17.0924C33.8355 17.2504 34.0672 17.4791 34.2289 17.7553C34.3907 18.0314 34.4768 18.3454 34.4785 18.6655L34.4785 18.6703L34.4785 29.8181H33.574L34.4785 29.823C34.4768 30.143 34.3907 30.457 34.2289 30.7332C34.0672 31.0093 33.8355 31.238 33.5571 31.396L33.5539 31.3979L23.6082 36.9923C23.3379 37.1472 23.0318 37.2287 22.7202 37.2287C22.4086 37.2287 22.1025 37.1472 21.8322 36.9923L11.8865 31.3979L11.8833 31.396C11.605 31.238 11.3733 31.0093 11.2115 30.7332C11.0497 30.457 10.9636 30.143 10.9619 29.823L10.9619 29.8181V18.6655C10.9636 18.3454 11.0497 18.0315 11.2115 17.7553C11.3733 17.4791 11.605 17.2504 11.8833 17.0924L11.8865 17.0906L21.8322 11.4961ZM32.6696 29.8137V18.6747C32.6695 18.6729 32.6689 18.6711 32.668 18.6695C32.6671 18.6679 32.6657 18.6666 32.6642 18.6656C32.6641 18.6655 32.6643 18.6657 32.6642 18.6656L22.7202 13.0721L12.7766 18.6654C12.7765 18.6655 12.7767 18.6653 12.7766 18.6654C12.775 18.6664 12.7734 18.6679 12.7724 18.6695C12.7715 18.6711 12.771 18.6729 12.7709 18.6747V29.8137C12.771 29.8155 12.7715 29.8173 12.7724 29.8189C12.7734 29.8205 12.7747 29.8218 12.7763 29.8228C12.7764 29.8229 12.7761 29.8227 12.7763 29.8228L22.7202 35.4163L32.6638 29.823C32.664 29.8229 32.6637 29.8231 32.6638 29.823C32.6654 29.822 32.6671 29.8205 32.668 29.8189C32.6689 29.8173 32.6695 29.8155 32.6696 29.8137Z" fill="#B8B8B8"/>
<path fill-rule="evenodd" clip-rule="evenodd" d="M16.5013 14.6495C16.7426 14.2121 17.2927 14.053 17.7302 14.2943L28.697 20.343C28.9855 20.5022 29.1647 20.8056 29.1647 21.135V27.0142C29.1647 27.5137 28.7597 27.9187 28.2602 27.9187C27.7607 27.9187 27.3557 27.5137 27.3557 27.0142V21.6691L16.8565 15.8783C16.4191 15.637 16.2601 15.0869 16.5013 14.6495Z" fill="#B8B8B8"/>
<path fill-rule="evenodd" clip-rule="evenodd" d="M11.2005 17.767C11.4438 17.3307 11.9946 17.1741 12.431 17.4173L22.8176 23.207L33.0027 17.4209C33.4371 17.1742 33.9892 17.3263 34.2359 17.7606C34.4827 18.195 34.3306 18.7471 33.8963 18.9938L23.2686 25.0313C22.9938 25.1874 22.6575 25.1887 22.3814 25.0349L11.5502 18.9974C11.1139 18.7542 10.9573 18.2033 11.2005 17.767Z" fill="#B8B8B8"/>
<path fill-rule="evenodd" clip-rule="evenodd" d="M22.8293 23.3399C23.3288 23.3441 23.7303 23.7524 23.7261 24.252L23.6244 36.3268C23.6202 36.8263 23.2118 37.2279 22.7123 37.2237C22.2128 37.2194 21.8113 36.8111 21.8155 36.3116L21.9172 24.2367C21.9214 23.7372 22.3298 23.3357 22.8293 23.3399Z" fill="#B8B8B8"/>
</svg>
